<?xml version="1.0" standalone="no"?>
<!DOCTYPE svg PUBLIC "-//W3C//DTD SVG 20010904//EN"
 "http://www.w3.org/TR/2001/REC-SVG-20010904/DTD/svg10.dtd">
<svg version="1.0" xmlns="http://www.w3.org/2000/svg"
 width="978.000000pt" height="515.000000pt" viewBox="0 0 978.000000 515.000000"
 preserveAspectRatio="xMidYMid meet">

<g transform="translate(0.000000,515.000000) scale(0.100000,-0.100000)"
fill="#000000" stroke="none">
<path d="M1 3228 c1 -1058 4 -1932 7 -1943 4 -11 16 -20 27 -20 15 0 20 -7 21
-30 1 -30 1 -30 -3 -2 -6 38 -36 32 -44 -8 -4 -17 -7 -299 -8 -627 l-1 -598
4890 0 4890 0 0 2575 0 2575 -4890 0 -4890 0 1 -1922z m229 1777 l0 -65 -80 0
-80 0 0 65 0 65 80 0 80 0 0 -65z m8890 5 l0 -50 -50 0 -50 0 0 50 0 50 50 0
50 0 0 -50z m438 31 l27 24 -24 -27 -24 -28 24 -27 24 -28 -27 24 -28 24 -27
-24 -28 -24 24 28 24 27 -24 28 -24 27 28 -24 27 -24 28 24z m-8901 -58 c-2
-16 -4 -5 -4 22 0 28 2 40 4 28 2 -13 2 -35 0 -50z m-297 24 c0 -5 8 -3 18 4
15 13 16 12 3 -3 -11 -15 -11 -21 -1 -33 9 -10 9 -15 1 -15 -6 0 -11 6 -12 13
0 10 -2 10 -6 0 -7 -18 -62 -16 -69 2 -11 27 4 44 35 43 17 -1 31 -5 31 -11z
m90 -17 c0 -23 -4 -30 -20 -30 -24 0 -27 28 -3 37 15 6 15 7 -3 14 -17 7 -17
8 4 8 18 1 22 -4 22 -29z m109 -3 c-2 -31 -2 -31 -6 -4 -5 33 -25 31 -34 -4
-7 -23 -7 -23 -8 4 -1 34 -22 32 -32 -4 -7 -22 -7 -22 -8 6 -1 29 1 30 44 32
45 2 45 2 44 -30z m71 7 c0 -17 -7 -28 -19 -31 -11 -3 -22 -12 -24 -22 -3 -9
-5 4 -6 29 -1 42 1 46 24 48 21 1 25 -3 25 -24z m97 9 c2 -6 -6 -13 -19 -15
l-23 -5 25 -11 c25 -11 25 -11 2 -11 -25 -1 -38 20 -28 45 7 17 37 16 43 -3z
m7921 0 c-16 -2 -40 -2 -55 0 -16 2 -3 4 27 4 30 0 43 -2 28 -4z m1042 -458
c0 -43 -4 -75 -10 -75 -6 0 -10 32 -10 75 0 43 4 75 10 75 6 0 10 -32 10 -75z
m-9090 -249 c0 -26 5 -46 13 -49 6 -3 -4 -5 -23 -5 -19 0 -27 2 -17 5 20 5 25
78 5 86 -8 3 -6 6 5 6 14 1 17 -7 17 -43z m240 0 c0 -26 5 -46 13 -49 6 -3 -4
-5 -23 -5 -19 0 -27 2 -17 5 20 5 25 78 5 86 -8 3 -6 6 5 6 14 1 17 -7 17 -43z
m234 17 c-18 -35 -17 -41 2 -78 14 -29 14 -29 -2 -13 -21 21 -24 79 -5 102 20
24 22 20 5 -11z m63 5 c-3 -8 -6 -5 -6 6 -1 11 2 17 5 13 3 -3 4 -12 1 -19z
m30 0 c-3 -8 -6 -5 -6 6 -1 11 2 17 5 13 3 -3 4 -12 1 -19z m68 -13 c16 0 20
-7 21 -35 l2 -35 -5 33 c-6 42 -35 40 -44 -3 -5 -22 -7 -16 -7 25 0 31 3 46 6
35 4 -11 16 -20 27 -20z m165 -9 c0 -26 5 -46 13 -49 6 -3 -4 -5 -23 -5 -19 0
-27 2 -17 5 20 5 25 78 5 86 -8 3 -6 6 5 6 14 1 17 -7 17 -43z m80 0 c0 -26 5
-46 13 -49 6 -3 -4 -5 -23 -5 -19 0 -27 2 -17 5 20 5 25 78 5 86 -8 3 -6 6 5
6 14 1 17 -7 17 -43z m137 22 c-3 -8 -6 -5 -6 6 -1 11 2 17 5 13 3 -3 4 -12 1
-19z m30 0 c-3 -8 -6 -5 -6 6 -1 11 2 17 5 13 3 -3 4 -12 1 -19z m77 -43 c0
-20 -7 -43 -18 -53 -16 -16 -16 -16 -2 13 9 17 16 35 16 40 0 6 -7 24 -16 40
-14 29 -14 29 2 13 11 -10 18 -33 18 -53z m-1687 -15 c-12 -10 -24 -16 -26
-14 -3 2 4 11 15 19 18 14 18 16 2 29 -10 7 -18 17 -18 21 0 5 11 -2 25 -15
l24 -23 -22 -17z m156 40 c-13 -5 -23 -16 -23 -25 0 -9 10 -20 23 -25 17 -8
18 -9 3 -7 -28 3 -43 32 -27 51 8 9 21 16 30 15 11 0 9 -3 -6 -9z m102 -25 c0
-25 -4 -30 -25 -30 -16 0 -26 6 -28 18 -6 30 6 49 30 45 18 -2 23 -9 23 -33z
m81 0 c1 -30 1 -30 -3 -2 -6 38 -36 32 -44 -8 -7 -30 -7 -30 -8 6 -1 33 1 36
27 35 23 -1 27 -5 28 -31z m62 28 c-24 -6 -23 -19 3 -26 30 -8 18 -32 -17 -34
l-29 -2 30 8 c30 7 30 7 8 19 -13 7 -23 19 -23 27 0 9 9 15 23 14 16 -1 18 -2
5 -6z m97 -28 c0 -25 -4 -30 -25 -30 -16 0 -26 6 -28 18 -6 30 6 49 30 45 18
-2 23 -9 23 -33z m163 13 c3 -14 -3 -18 -24 -18 -30 0 -23 -14 11 -23 12 -3 8
-5 -10 -4 -31 2 -43 23 -31 53 8 21 50 14 54 -8z m237 -13 c0 -25 -4 -30 -25
-30 -16 0 -26 6 -28 18 -6 30 6 49 30 45 18 -2 23 -9 23 -33z m80 18 c-2 -10
-4 -21 -4 -25 -1 -4 -11 -9 -23 -11 -19 -4 -18 -5 5 -6 37 -1 34 -36 -3 -36
-21 0 -25 5 -27 35 -4 48 2 60 31 60 18 0 23 -5 21 -17z m323 -5 c3 -14 -3
-18 -24 -18 -30 0 -23 -14 11 -23 12 -3 8 -5 -10 -4 -31 2 -43 23 -31 53 8 21
50 14 54 -8z m237 -13 c0 -25 -4 -30 -25 -30 -16 0 -26 6 -28 18 -6 30 6 49
30 45 18 -2 23 -9 23 -33z m-815 -25 c0 -5 -4 -10 -10 -10 -5 0 -10 5 -10 10
0 6 5 10 10 10 6 0 10 -4 10 -10z m715 -105 c16 0 20 -7 21 -35 l2 -35 -5 33
c-6 42 -35 40 -44 -3 -5 -22 -7 -16 -7 25 0 31 3 46 6 35 4 -11 16 -20 27 -20z
m165 -9 c0 -26 5 -46 13 -49 6 -3 -4 -5 -23 -5 -19 0 -27 2 -17 5 20 5 25 78
5 86 -8 3 -6 6 5 6 14 1 17 -7 17 -43z m80 0 c0 -26 5 -46 13 -49 6 -3 -4 -5
-23 -5 -19 0 -27 2 -17 5 20 5 25 78 5 86 -8 3 -6 6 5 6 14 1 17 -7 17 -43z
m-142 -8 c3 -14 -3 -18 -24 -18 -30 0 -23 -14 11 -23 12 -3 8 -5 -10 -4 -31 2
-43 23 -31 53 8 21 50 14 54 -8z m237 -13 c0 -25 -4 -30 -25 -30 -16 0 -26 6
-28 18 -6 30 6 49 30 45 18 -2 23 -9 23 -33z m-1215 -299 c0 -26 5 -46 13 -49
6 -3 -4 -5 -23 -5 -19 0 -27 2 -17 5 20 5 25 78 5 86 -8 3 -6 6 5 6 14 1 17
-7 17 -43z m634 17 c-18 -35 -17 -41 2 -78 14 -29 14 -29 -2 -13 -21 21 -24
79 -5 102 20 24 22 20 5 -11z m63 5 c-3 -8 -6 -5 -6 6 -1 11 2 17 5 13 3 -3 4
-12 1 -19z m30 0 c-3 -8 -6 -5 -6 6 -1 11 2 17 5 13 3 -3 4 -12 1 -19z m68
-13 c16 0 20 -7 21 -35 l2 -35 -5 33 c-6 42 -35 40 -44 -3 -5 -22 -7 -16 -7
25 0 31 3 46 6 35 4 -11 16 -20 27 -20z m165 -9 c0 -26 5 -46 13 -49 6 -3 -4
-5 -23 -5 -19 0 -27 2 -17 5 20 5 25 78 5 86 -8 3 -6 6 5 6 14 1 17 -7 17 -43z
m80 0 c0 -26 5 -46 13 -49 6 -3 -4 -5 -23 -5 -19 0 -27 2 -17 5 20 5 25 78 5
86 -8 3 -6 6 5 6 14 1 17 -7 17 -43z m137 22 c-3 -8 -6 -5 -6 6 -1 11 2 17 5
13 3 -3 4 -12 1 -19z m30 0 c-3 -8 -6 -5 -6 6 -1 11 2 17 5 13 3 -3 4 -12 1
-19z m77 -43 c0 -20 -7 -43 -18 -53 -16 -16 -16 -16 -2 13 9 17 16 35 16 40 0
6 -7 24 -16 40 -14 29 -14 29 2 13 11 -10 18 -33 18 -53z m-1039 32 c18 -4 18
-5 -2 -6 -16 -1 -23 -7 -23 -21 0 -12 10 -24 23 -30 l22 -9 -22 0 c-17 -1 -25
7 -31 32 -9 33 -4 67 7 49 3 -5 15 -12 26 -15z m-808 -47 c-12 -10 -24 -16
-26 -14 -3 2 4 11 15 19 18 14 18 16 2 29 -10 7 -18 17 -18 21 0 5 11 -2 25
-15 l24 -23 -22 -17z m156 40 c-13 -5 -23 -16 -23 -25 0 -9 10 -20 23 -25 17
-8 18 -9 3 -7 -28 3 -43 32 -27 51 8 9 21 16 30 15 11 0 9 -3 -6 -9z m102 -25
c0 -25 -4 -30 -25 -30 -16 0 -26 6 -28 18 -6 30 6 49 30 45 18 -2 23 -9 23
-33z m81 0 c1 -30 1 -30 -3 -2 -6 38 -36 32 -44 -8 -7 -30 -7 -30 -8 6 -1 33
1 36 27 35 23 -1 27 -5 28 -31z m62 28 c-24 -6 -23 -19 3 -26 30 -8 18 -32
-17 -34 l-29 -2 30 8 c30 7 30 7 8 19 -13 7 -23 19 -23 27 0 9 9 15 23 14 16
-1 18 -2 5 -6z m97 -28 c0 -25 -4 -30 -25 -30 -16 0 -26 6 -28 18 -6 30 6 49
30 45 18 -2 23 -9 23 -33z m163 13 c3 -14 -3 -18 -24 -18 -30 0 -23 -14 11
-23 12 -3 8 -5 -10 -4 -31 2 -43 23 -31 53 8 21 50 14 54 -8z m240 1 c3 -11 2
-11 -7 1 -13 18 -27 5 -34 -30 -4 -21 -4 -21 -6 7 -1 40 37 59 47 22z m80 -15
c3 -28 1 -31 -25 -30 -35 1 -38 28 -3 37 l25 6 -25 12 -25 11 25 -3 c20 -2 26
-8 28 -33z m55 26 c-13 -5 -23 -16 -23 -25 0 -9 10 -20 23 -25 17 -8 18 -9 3
-7 -28 3 -43 32 -27 51 8 9 21 16 30 15 11 0 9 -3 -6 -9z m105 -12 c3 -14 -3
-18 -24 -18 -30 0 -23 -14 11 -23 12 -3 8 -5 -10 -4 -31 2 -43 23 -31 53 8 21
50 14 54 -8z m320 0 c3 -14 -3 -18 -24 -18 -30 0 -23 -14 11 -23 12 -3 8 -5
-10 -4 -31 2 -43 23 -31 53 8 21 50 14 54 -8z m237 -13 c0 -25 -4 -30 -25 -30
-16 0 -26 6 -28 18 -6 30 6 49 30 45 18 -2 23 -9 23 -33z m-975 -25 c0 -5 -4
-10 -10 -10 -5 0 -10 5 -10 10 0 6 5 10 10 10 6 0 10 -4 10 -10z m875 -105
c16 0 20 -7 21 -35 l2 -35 -5 33 c-6 42 -35 40 -44 -3 -5 -22 -7 -16 -7 25 0
31 3 46 6 35 4 -11 16 -20 27 -20z m165 -9 c0 -26 5 -46 13 -49 6 -3 -4 -5
-23 -5 -19 0 -27 2 -17 5 20 5 25 78 5 86 -8 3 -6 6 5 6 14 1 17 -7 17 -43z
m80 0 c0 -26 5 -46 13 -49 6 -3 -4 -5 -23 -5 -19 0 -27 2 -17 5 20 5 25 78 5
86 -8 3 -6 6 5 6 14 1 17 -7 17 -43z m-142 -8 c3 -14 -3 -18 -24 -18 -30 0
-23 -14 11 -23 12 -3 8 -5 -10 -4 -31 2 -43 23 -31 53 8 21 50 14 54 -8z m237
-13 c0 -25 -4 -30 -25 -30 -16 0 -26 6 -28 18 -6 30 6 49 30 45 18 -2 23 -9
23 -33z m-1375 -299 c0 -26 5 -46 13 -49 6 -3 -4 -5 -23 -5 -19 0 -27 2 -17 5
20 5 25 78 5 86 -8 3 -6 6 5 6 14 1 17 -7 17 -43z m260 -5 c0 -46 -1 -48 -27
-47 -24 1 -28 5 -28 31 0 23 5 31 23 33 12 2 22 10 22 18 0 8 2 14 5 14 3 0 5
-22 5 -49z m135 14 c16 0 20 -7 20 -30 0 -25 -4 -30 -27 -33 -28 -3 -28 -2
-27 50 1 31 4 45 7 33 4 -11 16 -20 27 -20z m239 8 c-18 -35 -17 -41 2 -78 14
-29 14 -29 -2 -13 -21 21 -24 79 -5 102 20 24 22 20 5 -11z m63 5 c-3 -8 -6
-5 -6 6 -1 11 2 17 5 13 3 -3 4 -12 1 -19z m30 0 c-3 -8 -6 -5 -6 6 -1 11 2
17 5 13 3 -3 4 -12 1 -19z m68 -13 c16 0 20 -7 21 -35 l2 -35 -5 33 c-6 42
-35 40 -44 -3 -5 -22 -7 -16 -7 25 0 31 3 46 6 35 4 -11 16 -20 27 -20z m165
-9 c0 -26 5 -46 13 -49 6 -3 -4 -5 -23 -5 -19 0 -27 2 -17 5 20 5 25 78 5 86
-8 3 -6 6 5 6 14 1 17 -7 17 -43z m80 0 c0 -26 5 -46 13 -49 6 -3 -4 -5 -23
-5 -19 0 -27 2 -17 5 20 5 25 78 5 86 -8 3 -6 6 5 6 14 1 17 -7 17 -43z m137
22 c-3 -8 -6 -5 -6 6 -1 11 2 17 5 13 3 -3 4 -12 1 -19z m30 0 c-3 -8 -6 -5
-6 6 -1 11 2 17 5 13 3 -3 4 -12 1 -19z m77 -43 c0 -20 -7 -43 -18 -53 -16
-16 -16 -16 -2 13 9 17 16 35 16 40 0 6 -7 24 -16 40 -14 29 -14 29 2 13 11
-10 18 -33 18 -53z m-1847 -15 c-12 -10 -24 -16 -26 -14 -3 2 4 11 15 19 18
14 18 16 2 29 -10 7 -18 17 -18 21 0 5 11 -2 25 -15 l24 -23 -22 -17z m156 40
c-13 -5 -23 -16 -23 -25 0 -9 10 -20 23 -25 17 -8 18 -9 3 -7 -28 3 -43 32
-27 51 8 9 21 16 30 15 11 0 9 -3 -6 -9z m102 -25 c0 -25 -4 -30 -25 -30 -16
0 -26 6 -28 18 -6 30 6 49 30 45 18 -2 23 -9 23 -33z m81 0 c1 -30 1 -30 -3
-2 -6 38 -36 32 -44 -8 -7 -30 -7 -30 -8 6 -1 33 1 36 27 35 23 -1 27 -5 28
-31z m62 28 c-24 -6 -23 -19 3 -26 30 -8 18 -32 -17 -34 l-29 -2 30 8 c30 7
30 7 8 19 -13 7 -23 19 -23 27 0 9 9 15 23 14 16 -1 18 -2 5 -6z m97 -28 c0
-25 -4 -30 -25 -30 -16 0 -26 6 -28 18 -6 30 6 49 30 45 18 -2 23 -9 23 -33z
m163 13 c3 -14 -3 -18 -24 -18 -30 0 -23 -14 11 -23 12 -3 8 -5 -10 -4 -31 2
-43 23 -31 53 8 21 50 14 54 -8z m240 0 c3 -14 -3 -18 -24 -18 -30 0 -23 -14
11 -23 12 -3 8 -5 -10 -4 -31 2 -43 23 -31 53 8 21 50 14 54 -8z m132 -33 c8
0 18 13 21 30 7 30 7 30 8 -6 1 -33 -1 -36 -26 -35 -25 1 -28 5 -30 36 -1 34
-1 34 5 5 4 -17 14 -30 22 -30z m105 38 c-2 -10 -4 -21 -4 -25 -1 -4 -11 -9
-23 -11 -19 -4 -18 -5 5 -6 37 -1 34 -36 -3 -36 -21 0 -25 5 -27 35 -4 48 2
60 31 60 18 0 23 -5 21 -17z m323 -5 c3 -14 -3 -18 -24 -18 -30 0 -23 -14 11
-23 12 -3 8 -5 -10 -4 -31 2 -43 23 -31 53 8 21 50 14 54 -8z m237 -13 c0 -25
-4 -30 -25 -30 -16 0 -26 6 -28 18 -6 30 6 49 30 45 18 -2 23 -9 23 -33z
m-975 -25 c0 -5 -4 -10 -10 -10 -5 0 -10 5 -10 10 0 6 5 10 10 10 6 0 10 -4
10 -10z m-717 -77 c-8 -3 -13 -25 -13 -58 0 -33 5 -55 13 -58 7 -3 5 -6 -5 -6
-15 -1 -18 8 -18 64 0 56 3 65 18 64 10 0 12 -3 5 -6z m637 -58 c0 -56 -3 -65
-17 -64 -11 0 -13 3 -5 6 7 3 12 25 12 58 0 33 -5 55 -12 58 -8 3 -6 6 5 6 14
1 17 -8 17 -64z m163 58 c-8 -3 -13 -25 -13 -58 0 -33 5 -55 13 -58 7 -3 5 -6
-5 -6 -15 -1 -18 8 -18 64 0 56 3 65 18 64 10 0 12 -3 5 -6z m97 -42 c0 -46
-1 -48 -27 -47 -24 1 -28 5 -28 31 0 23 5 31 23 33 12 2 22 10 22 18 0 8 2 14
5 14 3 0 5 -22 5 -49z m135 14 c16 0 20 -7 20 -30 0 -25 -4 -30 -27 -33 -28
-3 -28 -2 -27 50 1 31 4 45 7 33 4 -11 16 -20 27 -20z m245 -30 c0 -56 -3 -65
-17 -64 -11 0 -13 3 -5 6 7 3 12 25 12 58 0 33 -5 55 -12 58 -8 3 -6 6 5 6 14
1 17 -8 17 -64z m315 30 c16 0 20 -7 21 -35 l2 -35 -5 33 c-6 42 -35 40 -44
-3 -5 -22 -7 -16 -7 25 0 31 3 46 6 35 4 -11 16 -20 27 -20z m165 -9 c0 -26 5
-46 13 -49 6 -3 -4 -5 -23 -5 -19 0 -27 2 -17 5 20 5 25 78 5 86 -8 3 -6 6 5
6 14 1 17 -7 17 -43z m80 0 c0 -26 5 -46 13 -49 6 -3 -4 -5 -23 -5 -19 0 -27
2 -17 5 20 5 25 78 5 86 -8 3 -6 6 5 6 14 1 17 -7 17 -43z m-1757 27 c-7 -2
-19 -2 -25 0 -7 3 -2 5 12 5 14 0 19 -2 13 -5z m157 -32 c0 -22 5 -42 13 -44
6 -3 -4 -5 -23 -5 -19 0 -27 2 -17 5 12 3 17 15 17 40 0 32 -2 34 -17 22 -16
-13 -17 -12 -4 4 21 27 31 20 31 -22z m80 0 c0 -22 5 -42 13 -44 6 -3 -4 -5
-23 -5 -19 0 -27 2 -17 5 12 3 17 15 17 40 0 32 -2 34 -17 22 -16 -13 -17 -12
-4 4 21 27 31 20 31 -22z m164 12 c0 -13 3 -23 8 -23 4 0 8 -7 8 -15 0 -15
-46 -32 -57 -21 -4 3 3 6 15 6 30 0 37 19 10 29 -17 7 -19 10 -5 10 25 1 21
29 -5 34 -20 5 -20 5 2 4 19 -2 25 -7 24 -24z m80 0 c0 -13 3 -23 8 -23 4 0 8
-7 8 -15 0 -15 -46 -32 -57 -21 -4 3 3 6 15 6 30 0 37 19 10 29 -17 7 -19 10
-5 10 25 1 21 29 -5 34 -20 5 -20 5 2 4 19 -2 25 -7 24 -24z m-404 -3 c0 -5
-4 -10 -10 -10 -5 0 -10 5 -10 10 0 6 5 10 10 10 6 0 10 -4 10 -10z m240 0 c0
-5 -4 -10 -10 -10 -5 0 -10 5 -10 10 0 6 5 10 10 10 6 0 10 -4 10 -10z m578
-12 c3 -14 -3 -18 -24 -18 -30 0 -23 -14 11 -23 12 -3 8 -5 -10 -4 -31 2 -43
23 -31 53 8 21 50 14 54 -8z m132 -33 c8 0 18 13 21 30 7 30 7 30 8 -6 1 -33
-1 -36 -26 -35 -25 1 -28 5 -30 36 -1 34 -1 34 5 5 4 -17 14 -30 22 -30z m105
38 c-2 -10 -4 -21 -4 -25 -1 -4 -11 -9 -23 -11 -19 -4 -18 -5 5 -6 37 -1 34
-36 -3 -36 -21 0 -25 5 -27 35 -4 48 2 60 31 60 18 0 23 -5 21 -17z m483 -5
c3 -14 -3 -18 -24 -18 -30 0 -23 -14 11 -23 12 -3 8 -5 -10 -4 -31 2 -43 23
-31 53 8 21 50 14 54 -8z m237 -13 c0 -25 -4 -30 -25 -30 -16 0 -26 6 -28 18
-6 30 6 49 30 45 18 -2 23 -9 23 -33z m-1838 -1 c7 -18 -13 -34 -42 -33 -17 1
-17 2 3 7 28 8 30 24 5 33 -16 7 -15 8 5 8 12 1 25 -6 29 -15z m1346 -1 c-7
-2 -19 -2 -25 0 -7 3 -2 5 12 5 14 0 19 -2 13 -5z m-1283 -23 c0 -5 -4 -10
-10 -10 -5 0 -10 5 -10 10 0 6 5 10 10 10 6 0 10 -4 10 -10z m240 0 c0 -5 -4
-10 -10 -10 -5 0 -10 5 -10 10 0 6 5 10 10 10 6 0 10 -4 10 -10z m160 -274 c0
-26 5 -46 13 -49 6 -3 -4 -5 -23 -5 -19 0 -27 2 -17 5 20 5 25 78 5 86 -8 3
-6 6 5 6 14 1 17 -7 17 -43z m240 34 c0 -5 -4 -10 -10 -10 -5 0 -10 5 -10 10
0 6 5 10 10 10 6 0 10 -4 10 -10z m168 3 c-10 -2 -18 -11 -18 -19 0 -8 8 -15
18 -15 16 -1 16 -2 0 -6 -11 -3 -19 -15 -19 -31 l-2 -27 -4 25 c-3 14 -10 28
-17 32 -8 6 -8 8 0 8 7 0 14 9 17 20 3 12 13 20 24 19 16 -1 16 -2 1 -6z m146
-20 c-18 -35 -17 -41 2 -78 14 -29 14 -29 -2 -13 -21 21 -24 79 -5 102 20 24
22 20 5 -11z m63 5 c-3 -8 -6 -5 -6 6 -1 11 2 17 5 13 3 -3 4 -12 1 -19z m30
0 c-3 -8 -6 -5 -6 6 -1 11 2 17 5 13 3 -3 4 -12 1 -19z m68 -13 c16 0 20 -7
21 -35 l2 -35 -5 33 c-6 42 -35 40 -44 -3 -5 -22 -7 -16 -7 25 0 31 3 46 6 35
4 -11 16 -20 27 -20z m165 -9 c0 -26 5 -46 13 -49 6 -3 -4 -5 -23 -5 -19 0
-27 2 -17 5 20 5 25 78 5 86 -8 3 -6 6 5 6 14 1 17 -7 17 -43z m80 0 c0 -26 5
-46 13 -49 6 -3 -4 -5 -23 -5 -19 0 -27 2 -17 5 20 5 25 78 5 86 -8 3 -6 6 5
6 14 1 17 -7 17 -43z m137 22 c-3 -8 -6 -5 -6 6 -1 11 2 17 5 13 3 -3 4 -12 1
-19z m30 0 c-3 -8 -6 -5 -6 6 -1 11 2 17 5 13 3 -3 4 -12 1 -19z m77 -43 c0
-20 -7 -43 -18 -53 -16 -16 -16 -16 -2 13 9 17 16 35 16 40 0 6 -7 24 -16 40
-14 29 -14 29 2 13 11 -10 18 -33 18 -53z m-1767 -15 c-12 -10 -24 -16 -26
-14 -3 2 4 11 15 19 18 14 18 16 2 29 -10 7 -18 17 -18 21 0 5 11 -2 25 -15
l24 -23 -22 -17z m156 40 c-13 -5 -23 -16 -23 -25 0 -9 10 -20 23 -25 17 -8
18 -9 3 -7 -28 3 -43 32 -27 51 8 9 21 16 30 15 11 0 9 -3 -6 -9z m102 -25 c0
-25 -4 -30 -25 -30 -16 0 -26 6 -28 18 -6 30 6 49 30 45 18 -2 23 -9 23 -33z
m81 0 c1 -30 1 -30 -3 -2 -6 38 -36 32 -44 -8 -7 -30 -7 -30 -8 6 -1 33 1 36
27 35 23 -1 27 -5 28 -31z m62 28 c-24 -6 -23 -19 3 -26 30 -8 18 -32 -17 -34
l-29 -2 30 8 c30 7 30 7 8 19 -13 7 -23 19 -23 27 0 9 9 15 23 14 16 -1 18 -2
5 -6z m97 -28 c0 -25 -4 -30 -25 -30 -16 0 -26 6 -28 18 -6 30 6 49 30 45 18
-2 23 -9 23 -33z m163 13 c3 -14 -3 -18 -24 -18 -30 0 -23 -14 11 -23 12 -3 8
-5 -10 -4 -31 2 -43 23 -31 53 8 21 50 14 54 -8z m142 -7 c0 -16 6 -32 13 -34
6 -3 -4 -5 -23 -5 -19 0 -27 2 -17 5 20 5 24 49 5 56 -8 3 -6 6 5 6 12 1 17
-7 17 -28z m96 -6 c1 -30 1 -30 -3 -2 -6 38 -36 32 -44 -8 -7 -30 -7 -30 -8 6
-1 33 1 36 27 35 23 -1 27 -5 28 -31z m159 0 c0 -25 -4 -30 -25 -30 -16 0 -26
6 -28 18 -6 30 6 49 30 45 18 -2 23 -9 23 -33z m323 13 c3 -14 -3 -18 -24 -18
-30 0 -23 -14 11 -23 12 -3 8 -5 -10 -4 -31 2 -43 23 -31 53 8 21 50 14 54 -8z
m237 -13 c0 -25 -4 -30 -25 -30 -16 0 -26 6 -28 18 -6 30 6 49 30 45 18 -2 23
-9 23 -33z m-895 -25 c0 -5 -4 -10 -10 -10 -5 0 -10 5 -10 10 0 6 5 10 10 10
6 0 10 -4 10 -10z m328 -77 c-10 -2 -18 -11 -18 -19 0 -8 8 -15 18 -15 16 -1
16 -2 0 -6 -11 -3 -19 -15 -19 -31 l-2 -27 -4 25 c-3 14 -10 28 -17 32 -8 6
-8 8 0 8 7 0 14 9 17 20 3 12 13 20 24 19 16 -1 16 -2 1 -6z m467 -28 c16 0
20 -7 21 -35 l2 -35 -5 33 c-6 42 -35 40 -44 -3 -5 -22 -7 -16 -7 25 0 31 3
46 6 35 4 -11 16 -20 27 -20z m165 -9 c0 -26 5 -46 13 -49 6 -3 -4 -5 -23 -5
-19 0 -27 2 -17 5 20 5 25 78 5 86 -8 3 -6 6 5 6 14 1 17 -7 17 -43z m80 0 c0
-26 5 -46 13 -49 6 -3 -4 -5 -23 -5 -19 0 -27 2 -17 5 20 5 25 78 5 86 -8 3
-6 6 5 6 14 1 17 -7 17 -43z m-1677 27 c-7 -2 -19 -2 -25 0 -7 3 -2 5 12 5 14
0 19 -2 13 -5z m170 -75 c7 -4 -1 -7 -18 -7 -16 0 -24 3 -17 6 6 2 13 23 14
46 l1 42 4 -40 c3 -22 10 -43 16 -47z m80 0 c7 -4 -1 -7 -18 -7 -16 0 -24 3
-17 6 6 2 13 23 14 46 l1 42 4 -40 c3 -22 10 -43 16 -47z m151 73 c4 -5 -3 -7
-14 -4 -23 6 -26 13 -6 13 8 0 17 -4 20 -9z m80 0 c4 -5 -3 -7 -14 -4 -23 6
-26 13 -6 13 8 0 17 -4 20 -9z m406 -15 c0 -2 -9 -6 -20 -9 -11 -3 -18 -1 -14
4 5 9 34 13 34 5z m157 -2 c-3 -3 -12 -4 -19 -1 -8 3 -5 6 6 6 11 1 17 -2 13
-5z m491 -16 c3 -14 -3 -18 -24 -18 -30 0 -23 -14 11 -23 12 -3 8 -5 -10 -4
-31 2 -43 23 -31 53 8 21 50 14 54 -8z m237 -13 c0 -25 -4 -30 -25 -30 -16 0
-26 6 -28 18 -6 30 6 49 30 45 18 -2 23 -9 23 -33z m-1370 15 c-3 -5 -12 -10
-18 -10 -7 0 -6 4 3 10 19 12 23 12 15 0z m80 0 c-3 -5 -12 -10 -18 -10 -7 0
-6 4 3 10 19 12 23 12 15 0z m-488 -6 c-3 -3 -12 -4 -19 -1 -8 3 -5 6 6 6 11
1 17 -2 13 -5z m1286 -11 c-7 -2 -19 -2 -25 0 -7 3 -2 5 12 5 14 0 19 -2 13
-5z m-1286 -29 c-3 -3 -12 -4 -19 -1 -8 3 -5 6 6 6 11 1 17 -2 13 -5z m400 0
c-3 -3 -12 -4 -19 -1 -8 3 -5 6 6 6 11 1 17 -2 13 -5z m80 0 c-3 -3 -12 -4
-19 -1 -8 3 -5 6 6 6 11 1 17 -2 13 -5z m326 -1 c-7 -2 -19 -2 -25 0 -7 3 -2
5 12 5 14 0 19 -2 13 -5z m234 1 c-3 -3 -12 -4 -19 -1 -8 3 -5 6 6 6 11 1 17
-2 13 -5z m-557 -268 c0 -26 5 -46 13 -49 6 -3 -4 -5 -23 -5 -19 0 -27 2 -17
5 20 5 25 78 5 86 -8 3 -6 6 5 6 14 1 17 -7 17 -43z m634 17 c-18 -35 -17 -41
2 -78 14 -29 14 -29 -2 -13 -21 21 -24 79 -5 102 20 24 22 20 5 -11z m63 5
c-3 -8 -6 -5 -6 6 -1 11 2 17 5 13 3 -3 4 -12 1 -19z m30 0 c-3 -8 -6 -5 -6 6
-1 11 2 17 5 13 3 -3 4 -12 1 -19z m68 -13 c16 0 20 -7 21 -35 l2 -35 -5 33
c-6 42 -35 40 -44 -3 -5 -22 -7 -16 -7 25 0 31 3 46 6 35 4 -11 16 -20 27 -20z
m165 -9 c0 -26 5 -46 13 -49 6 -3 -4 -5 -23 -5 -19 0 -27 2 -17 5 20 5 25 78
5 86 -8 3 -6 6 5 6 14 1 17 -7 17 -43z m80 0 c0 -26 5 -46 13 -49 6 -3 -4 -5
-23 -5 -19 0 -27 2 -17 5 20 5 25 78 5 86 -8 3 -6 6 5 6 14 1 17 -7 17 -43z
m137 22 c-3 -8 -6 -5 -6 6 -1 11 2 17 5 13 3 -3 4 -12 1 -19z m30 0 c-3 -8 -6
-5 -6 6 -1 11 2 17 5 13 3 -3 4 -12 1 -19z m77 -43 c0 -20 -7 -43 -18 -53 -16
-16 -16 -16 -2 13 9 17 16 35 16 40 0 6 -7 24 -16 40 -14 29 -14 29 2 13 11
-10 18 -33 18 -53z m-1847 -15 c-12 -10 -24 -16 -26 -14 -3 2 4 11 15 19 18
14 18 16 2 29 -10 7 -18 17 -18 21 0 5 11 -2 25 -15 l24 -23 -22 -17z m156 40
c-13 -5 -23 -16 -23 -25 0 -9 10 -20 23 -25 17 -8 18 -9 3 -7 -28 3 -43 32
-27 51 8 9 21 16 30 15 11 0 9 -3 -6 -9z m102 -25 c0 -25 -4 -30 -25 -30 -16
0 -26 6 -28 18 -6 30 6 49 30 45 18 -2 23 -9 23 -33z m81 0 c1 -30 1 -30 -3
-2 -6 38 -36 32 -44 -8 -7 -30 -7 -30 -8 6 -1 33 1 36 27 35 23 -1 27 -5 28
-31z m62 28 c-24 -6 -23 -19 3 -26 30 -8 18 -32 -17 -34 l-29 -2 30 8 c30 7
30 7 8 19 -13 7 -23 19 -23 27 0 9 9 15 23 14 16 -1 18 -2 5 -6z m97 -28 c0
-25 -4 -30 -25 -30 -16 0 -26 6 -28 18 -6 30 6 49 30 45 18 -2 23 -9 23 -33z
m163 13 c3 -14 -3 -18 -24 -18 -30 0 -23 -14 11 -23 12 -3 8 -5 -10 -4 -31 2
-43 23 -31 53 8 21 50 14 54 -8z m160 0 c3 -14 -3 -18 -24 -18 -30 0 -23 -14
11 -23 12 -3 8 -5 -10 -4 -31 2 -43 23 -31 53 8 21 50 14 54 -8z m80 1 c3 -11
2 -11 -7 1 -13 18 -27 5 -34 -30 -4 -21 -4 -21 -6 7 -1 40 37 59 47 22z m80 0
c3 -11 2 -11 -7 1 -13 18 -27 5 -34 -30 -4 -21 -4 -21 -6 7 -1 40 37 59 47 22z
m77 -14 c0 -25 -4 -30 -25 -30 -16 0 -26 6 -28 18 -6 30 6 49 30 45 18 -2 23
-9 23 -33z m83 14 c3 -11 2 -11 -7 1 -13 18 -27 5 -34 -30 -4 -21 -4 -21 -6 7
-1 40 37 59 47 22z m320 -1 c3 -14 -3 -18 -24 -18 -30 0 -23 -14 11 -23 12 -3
8 -5 -10 -4 -31 2 -43 23 -31 53 8 21 50 14 54 -8z m237 -13 c0 -25 -4 -30
-25 -30 -16 0 -26 6 -28 18 -6 30 6 49 30 45 18 -2 23 -9 23 -33z m-975 -25
c0 -5 -4 -10 -10 -10 -5 0 -10 5 -10 10 0 6 5 10 10 10 6 0 10 -4 10 -10z
m875 -105 c16 0 20 -7 21 -35 l2 -35 -5 33 c-6 42 -35 40 -44 -3 -5 -22 -7
-16 -7 25 0 31 3 46 6 35 4 -11 16 -20 27 -20z m165 -9 c0 -26 5 -46 13 -49 6
-3 -4 -5 -23 -5 -19 0 -27 2 -17 5 20 5 25 78 5 86 -8 3 -6 6 5 6 14 1 17 -7
17 -43z m80 0 c0 -26 5 -46 13 -49 6 -3 -4 -5 -23 -5 -19 0 -27 2 -17 5 20 5
25 78 5 86 -8 3 -6 6 5 6 14 1 17 -7 17 -43z m-142 -8 c3 -14 -3 -18 -24 -18
-30 0 -23 -14 11 -23 12 -3 8 -5 -10 -4 -31 2 -43 23 -31 53 8 21 50 14 54 -8z
m237 -13 c0 -25 -4 -30 -25 -30 -16 0 -26 6 -28 18 -6 30 6 49 30 45 18 -2 23
-9 23 -33z m-1375 -299 c0 -26 5 -46 13 -49 6 -3 -4 -5 -23 -5 -19 0 -27 2
-17 5 20 5 25 78 5 86 -8 3 -6 6 5 6 14 1 17 -7 17 -43z m554 17 c-18 -35 -17
-41 2 -78 14 -29 14 -29 -2 -13 -21 21 -24 79 -5 102 20 24 22 20 5 -11z m63
5 c-3 -8 -6 -5 -6 6 -1 11 2 17 5 13 3 -3 4 -12 1 -19z m30 0 c-3 -8 -6 -5 -6
6 -1 11 2 17 5 13 3 -3 4 -12 1 -19z m68 -13 c16 0 20 -7 21 -35 l2 -35 -5 33
c-6 42 -35 40 -44 -3 -5 -22 -7 -16 -7 25 0 31 3 46 6 35 4 -11 16 -20 27 -20z
m165 -9 c0 -26 5 -46 13 -49 6 -3 -4 -5 -23 -5 -19 0 -27 2 -17 5 20 5 25 78
5 86 -8 3 -6 6 5 6 14 1 17 -7 17 -43z m80 0 c0 -26 5 -46 13 -49 6 -3 -4 -5
-23 -5 -19 0 -27 2 -17 5 20 5 25 78 5 86 -8 3 -6 6 5 6 14 1 17 -7 17 -43z
m137 22 c-3 -8 -6 -5 -6 6 -1 11 2 17 5 13 3 -3 4 -12 1 -19z m30 0 c-3 -8 -6
-5 -6 6 -1 11 2 17 5 13 3 -3 4 -12 1 -19z m77 -43 c0 -20 -7 -43 -18 -53 -16
-16 -16 -16 -2 13 9 17 16 35 16 40 0 6 -7 24 -16 40 -14 29 -14 29 2 13 11
-10 18 -33 18 -53z m-1767 -15 c-12 -10 -24 -16 -26 -14 -3 2 4 11 15 19 18
14 18 16 2 29 -10 7 -18 17 -18 21 0 5 11 -2 25 -15 l24 -23 -22 -17z m156 40
c-13 -5 -23 -16 -23 -25 0 -9 10 -20 23 -25 17 -8 18 -9 3 -7 -28 3 -43 32
-27 51 8 9 21 16 30 15 11 0 9 -3 -6 -9z m102 -25 c0 -25 -4 -30 -25 -30 -16
0 -26 6 -28 18 -6 30 6 49 30 45 18 -2 23 -9 23 -33z m81 0 c1 -30 1 -30 -3
-2 -6 38 -36 32 -44 -8 -7 -30 -7 -30 -8 6 -1 33 1 36 27 35 23 -1 27 -5 28
-31z m62 28 c-24 -6 -23 -19 3 -26 30 -8 18 -32 -17 -34 l-29 -2 30 8 c30 7
30 7 8 19 -13 7 -23 19 -23 27 0 9 9 15 23 14 16 -1 18 -2 5 -6z m97 -28 c0
-25 -4 -30 -25 -30 -16 0 -26 6 -28 18 -6 30 6 49 30 45 18 -2 23 -9 23 -33z
m163 13 c3 -14 -3 -18 -24 -18 -30 0 -23 -14 11 -23 12 -3 8 -5 -10 -4 -31 2
-43 23 -31 53 8 21 50 14 54 -8z m115 -15 c4 -19 2 -33 -3 -33 -6 0 -10 17
-10 37 0 43 5 41 13 -4z m43 -31 c-11 -10 -14 3 -7 38 l6 35 3 -33 c2 -19 1
-36 -2 -40z m82 32 c3 -28 1 -31 -25 -30 -35 1 -38 28 -3 37 l25 6 -25 12 -25
11 25 -3 c20 -2 26 -8 28 -33z m80 15 c3 -11 2 -11 -7 1 -13 18 -27 5 -34 -30
-4 -21 -4 -21 -6 7 -1 40 37 59 47 22z m78 -14 c1 -30 1 -30 -3 -2 -6 38 -36
32 -44 -8 -7 -30 -7 -30 -8 6 -1 33 1 36 27 35 23 -1 27 -5 28 -31z m322 13
c3 -14 -3 -18 -24 -18 -30 0 -23 -14 11 -23 12 -3 8 -5 -10 -4 -31 2 -43 23
-31 53 8 21 50 14 54 -8z m237 -13 c0 -25 -4 -30 -25 -30 -16 0 -26 6 -28 18
-6 30 6 49 30 45 18 -2 23 -9 23 -33z m-815 -5 c0 -5 -2 -10 -4 -10 -3 0 -8 5
-11 10 -3 6 -1 10 4 10 6 0 11 -4 11 -10z m-80 -20 c0 -5 -4 -10 -10 -10 -5 0
-10 5 -10 10 0 6 5 10 10 10 6 0 10 -4 10 -10z m-713 -76 c-3 -3 -12 -4 -19
-1 -8 3 -5 6 6 6 11 1 17 -2 13 -5z m800 0 c-3 -3 -12 -4 -19 -1 -8 3 -5 6 6
6 11 1 17 -2 13 -5z m708 -29 c16 0 20 -7 21 -35 l2 -35 -5 33 c-6 42 -35 40
-44 -3 -5 -22 -7 -16 -7 25 0 31 3 46 6 35 4 -11 16 -20 27 -20z m165 -9 c0
-26 5 -46 13 -49 6 -3 -4 -5 -23 -5 -19 0 -27 2 -17 5 20 5 25 78 5 86 -8 3
-6 6 5 6 14 1 17 -7 17 -43z m80 0 c0 -26 5 -46 13 -49 6 -3 -4 -5 -23 -5 -19
0 -27 2 -17 5 20 5 25 78 5 86 -8 3 -6 6 5 6 14 1 17 -7 17 -43z m-1677 27
c-7 -2 -19 -2 -25 0 -7 3 -2 5 12 5 14 0 19 -2 13 -5z m170 -75 c7 -4 -1 -7
-18 -7 -16 0 -24 3 -17 6 6 2 13 23 14 46 l1 42 4 -40 c3 -22 10 -43 16 -47z
m80 0 c7 -4 -1 -7 -18 -7 -16 0 -24 3 -17 6 6 2 13 23 14 46 l1 42 4 -40 c3
-22 10 -43 16 -47z m151 73 c4 -5 -3 -7 -14 -4 -23 6 -26 13 -6 13 8 0 17 -4
20 -9z m80 0 c4 -5 -3 -7 -14 -4 -23 6 -26 13 -6 13 8 0 17 -4 20 -9z m414
-46 c3 -26 -1 -31 -22 -33 -14 -1 -28 3 -31 8 -3 5 1 7 9 4 8 -3 21 -2 28 2 9
6 6 10 -12 15 -24 7 -24 7 -2 8 26 1 29 17 5 25 -14 4 -14 4 2 3 14 -2 21 -11
23 -32z m80 14 c3 -12 2 -12 -6 0 -9 12 -13 12 -26 2 -9 -8 -16 -9 -16 -3 0
24 41 25 48 1z m72 17 c0 -2 -9 -6 -20 -9 -11 -3 -18 -1 -14 4 5 9 34 13 34 5z
m488 -18 c3 -14 -3 -18 -24 -18 -30 0 -23 -14 11 -23 12 -3 8 -5 -10 -4 -31 2
-43 23 -31 53 8 21 50 14 54 -8z m237 -13 c0 -25 -4 -30 -25 -30 -16 0 -26 6
-28 18 -6 30 6 49 30 45 18 -2 23 -9 23 -33z m-1370 15 c-3 -5 -12 -10 -18
-10 -7 0 -6 4 3 10 19 12 23 12 15 0z m80 0 c-3 -5 -12 -10 -18 -10 -7 0 -6 4
3 10 19 12 23 12 15 0z m282 -22 c-3 -7 -5 -2 -5 12 0 14 2 19 5 13 2 -7 2
-19 0 -25z m-750 2 c3 -10 2 -11 -4 -4 -4 7 -17 14 -28 17 -16 5 -15 5 4 4 14
-1 26 -9 28 -17z m1040 -17 c-3 -10 -5 -4 -5 12 0 17 2 24 5 18 2 -7 2 -21 0
-30z m226 20 c-7 -2 -19 -2 -25 0 -7 3 -2 5 12 5 14 0 19 -2 13 -5z m-472 -26
c-10 -9 -11 -8 -5 6 3 10 9 15 12 12 3 -3 0 -11 -7 -18z m-814 -3 c-3 -3 -12
-4 -19 -1 -8 3 -5 6 6 6 11 1 17 -2 13 -5z m400 0 c-3 -3 -12 -4 -19 -1 -8 3
-5 6 6 6 11 1 17 -2 13 -5z m80 0 c-3 -3 -12 -4 -19 -1 -8 3 -5 6 6 6 11 1 17
-2 13 -5z m-550 -30 c-3 -3 -12 -4 -19 -1 -8 3 -5 6 6 6 11 1 17 -2 13 -5z
m800 0 c-3 -3 -12 -4 -19 -1 -8 3 -5 6 6 6 11 1 17 -2 13 -5z m-247 -238 c0
-26 5 -46 13 -49 6 -3 -4 -5 -23 -5 -19 0 -27 2 -17 5 20 5 25 78 5 86 -8 3
-6 6 5 6 14 1 17 -7 17 -43z m640 0 c0 -26 5 -46 13 -49 6 -3 -4 -5 -23 -5
-19 0 -27 2 -17 5 20 5 25 78 5 86 -8 3 -6 6 5 6 14 1 17 -7 17 -43z m314 17
c-18 -35 -17 -41 2 -78 14 -29 14 -29 -2 -13 -21 21 -24 79 -5 102 20 24 22
20 5 -11z m63 5 c-3 -8 -6 -5 -6 6 -1 11 2 17 5 13 3 -3 4 -12 1 -19z m30 0
c-3 -8 -6 -5 -6 6 -1 11 2 17 5 13 3 -3 4 -12 1 -19z m68 -13 c16 0 20 -7 21
-35 l2 -35 -5 33 c-6 42 -35 40 -44 -3 -5 -22 -7 -16 -7 25 0 31 3 46 6 35 4
-11 16 -20 27 -20z m165 -9 c0 -26 5 -46 13 -49 6 -3 -4 -5 -23 -5 -19 0 -27
2 -17 5 20 5 25 78 5 86 -8 3 -6 6 5 6 14 1 17 -7 17 -43z m80 0 c0 -26 5 -46
13 -49 6 -3 -4 -5 -23 -5 -19 0 -27 2 -17 5 20 5 25 78 5 86 -8 3 -6 6 5 6 14
1 17 -7 17 -43z m137 22 c-3 -8 -6 -5 -6 6 -1 11 2 17 5 13 3 -3 4 -12 1 -19z
m30 0 c-3 -8 -6 -5 -6 6 -1 11 2 17 5 13 3 -3 4 -12 1 -19z m77 -43 c0 -20 -7
-43 -18 -53 -16 -16 -16 -16 -2 13 9 17 16 35 16 40 0 6 -7 24 -16 40 -14 29
-14 29 2 13 11 -10 18 -33 18 -53z m-881 -28 c18 -4 17 -5 -5 -6 -27 -1 -28 1
-26 47 l1 47 4 -42 c3 -33 8 -43 26 -46z m-1286 13 c-12 -10 -24 -16 -26 -14
-3 2 4 11 15 19 18 14 18 16 2 29 -10 7 -18 17 -18 21 0 5 11 -2 25 -15 l24
-23 -22 -17z m156 40 c-13 -5 -23 -16 -23 -25 0 -9 10 -20 23 -25 17 -8 18 -9
3 -7 -28 3 -43 32 -27 51 8 9 21 16 30 15 11 0 9 -3 -6 -9z m102 -25 c0 -25
-4 -30 -25 -30 -16 0 -26 6 -28 18 -6 30 6 49 30 45 18 -2 23 -9 23 -33z m81
0 c1 -30 1 -30 -3 -2 -6 38 -36 32 -44 -8 -7 -30 -7 -30 -8 6 -1 33 1 36 27
35 23 -1 27 -5 28 -31z m62 28 c-24 -6 -23 -19 3 -26 30 -8 18 -32 -17 -34
l-29 -2 30 8 c30 7 30 7 8 19 -13 7 -23 19 -23 27 0 9 9 15 23 14 16 -1 18 -2
5 -6z m97 -28 c0 -25 -4 -30 -25 -30 -16 0 -26 6 -28 18 -6 30 6 49 30 45 18
-2 23 -9 23 -33z m163 13 c3 -14 -3 -18 -24 -18 -30 0 -23 -14 11 -23 12 -3 8
-5 -10 -4 -31 2 -43 23 -31 53 8 21 50 14 54 -8z m158 -13 c1 -30 1 -30 -3 -2
-6 38 -36 32 -44 -8 -7 -30 -7 -30 -8 6 -1 33 1 36 27 35 23 -1 27 -5 28 -31z
m79 0 c0 -25 -4 -30 -25 -30 -16 0 -26 6 -28 18 -6 30 6 49 30 45 18 -2 23 -9
23 -33z m83 14 c3 -11 2 -11 -7 1 -13 18 -27 5 -34 -30 -4 -21 -4 -21 -6 7 -1
40 37 59 47 22z m81 -18 l-2 -36 -7 35 -7 35 -3 -35 c-1 -22 -4 -27 -7 -15
-10 45 -17 50 -23 15 l-7 -35 -2 37 c-1 35 1 37 29 36 28 -1 30 -4 29 -37z
m79 3 c3 -28 1 -31 -25 -30 -35 1 -38 28 -3 37 l25 6 -25 12 -25 11 25 -3 c20
-2 26 -8 28 -33z m237 1 c0 -25 -4 -30 -25 -30 -16 0 -26 6 -28 18 -6 30 6 49
30 45 18 -2 23 -9 23 -33z m80 18 c-2 -10 -4 -21 -4 -25 -1 -4 -11 -9 -23 -11
-19 -4 -18 -5 5 -6 37 -1 34 -36 -3 -36 -21 0 -25 5 -27 35 -4 48 2 60 31 60
18 0 23 -5 21 -17z m323 -5 c3 -14 -3 -18 -24 -18 -30 0 -23 -14 11 -23 12 -3
8 -5 -10 -4 -31 2 -43 23 -31 53 8 21 50 14 54 -8z m237 -13 c0 -25 -4 -30
-25 -30 -16 0 -26 6 -28 18 -6 30 6 49 30 45 18 -2 23 -9 23 -33z m-1295 -25
c0 -5 -4 -10 -10 -10 -5 0 -10 5 -10 10 0 6 5 10 10 10 6 0 10 -4 10 -10z
m-560 -114 c0 -26 5 -46 13 -49 6 -3 -4 -5 -23 -5 -19 0 -27 2 -17 5 20 5 25
78 5 86 -8 3 -6 6 5 6 14 1 17 -7 17 -43z m80 0 c0 -26 5 -46 13 -49 6 -3 -4
-5 -23 -5 -19 0 -27 2 -17 5 20 5 25 78 5 86 -8 3 -6 6 5 6 14 1 17 -7 17 -43z
m-142 -8 c3 -14 -3 -18 -24 -18 -30 0 -23 -14 11 -23 12 -3 8 -5 -10 -4 -31 2
-43 23 -31 53 8 21 50 14 54 -8z m237 -13 c0 -25 -4 -30 -25 -30 -16 0 -26 6
-28 18 -6 30 6 49 30 45 18 -2 23 -9 23 -33z"/>
<path d="M80 4995 l0 -45 70 0 70 0 0 45 0 45 -70 0 -70 0 0 -45z m45 15 c3
-6 -1 -7 -9 -4 -11 4 -16 0 -16 -11 0 -12 5 -15 18 -10 14 5 15 4 5 -6 -17
-17 -38 3 -30 25 7 18 23 21 32 6z m55 -30 c0 -13 -1 -13 -10 0 -5 8 -10 22
-10 30 0 13 1 13 10 0 5 -8 10 -22 10 -30z"/>
<path d="M9030 5010 l0 -40 40 0 40 0 0 40 0 40 -40 0 -40 0 0 -40z"/>
<path d="M308 5003 c7 -3 16 -2 19 1 4 3 -2 6 -13 5 -11 0 -14 -3 -6 -6z"/>
<path d="M340 5002 c0 -7 -9 -12 -21 -12 -11 0 -17 -4 -14 -10 8 -13 42 -13
51 1 3 6 1 16 -5 22 -8 8 -11 8 -11 -1z"/>
<path d="M420 4980 c0 -5 5 -10 10 -10 6 0 10 5 10 10 0 6 -4 10 -10 10 -5 0
-10 -4 -10 -10z"/>
<path d="M595 5000 c-7 -12 2 -30 16 -30 5 0 9 9 9 20 0 21 -15 27 -25 10z"/>
<path d="M698 5003 c7 -3 16 -2 19 1 4 3 -2 6 -13 5 -11 0 -14 -3 -6 -6z"/>
<path d="M250 4274 c0 -33 33 -30 38 4 3 17 -2 22 -17 22 -16 0 -21 -6 -21
-26z"/>
<path d="M490 4274 c0 -33 33 -30 38 4 3 17 -2 22 -17 22 -16 0 -21 -6 -21
-26z"/>
<path d="M655 4290 c-3 -5 3 -10 15 -10 12 0 18 5 15 10 -3 6 -10 10 -15 10
-5 0 -12 -4 -15 -10z"/>
<path d="M890 4274 c0 -33 33 -30 38 4 3 17 -2 22 -17 22 -16 0 -21 -6 -21
-26z"/>
<path d="M975 4291 c-7 -12 12 -24 25 -16 11 7 4 25 -10 25 -5 0 -11 -4 -15
-9z"/>
<path d="M970 4230 c0 -5 9 -10 20 -10 11 0 20 5 20 10 0 6 -9 10 -20 10 -11
0 -20 -4 -20 -10z"/>
<path d="M1295 4290 c-3 -5 3 -10 15 -10 12 0 18 5 15 10 -3 6 -10 10 -15 10
-5 0 -12 -4 -15 -10z"/>
<path d="M1530 4274 c0 -33 33 -30 38 4 3 17 -2 22 -17 22 -16 0 -21 -6 -21
-26z"/>
<path d="M1535 4130 c-3 -5 3 -10 15 -10 12 0 18 5 15 10 -3 6 -10 10 -15 10
-5 0 -12 -4 -15 -10z"/>
<path d="M1770 4114 c0 -33 33 -30 38 4 3 17 -2 22 -17 22 -16 0 -21 -6 -21
-26z"/>
<path d="M250 3794 c0 -33 33 -30 38 4 3 17 -2 22 -17 22 -16 0 -21 -6 -21
-26z"/>
<path d="M490 3794 c0 -33 33 -30 38 4 3 17 -2 22 -17 22 -16 0 -21 -6 -21
-26z"/>
<path d="M655 3810 c-3 -5 3 -10 15 -10 12 0 18 5 15 10 -3 6 -10 10 -15 10
-5 0 -12 -4 -15 -10z"/>
<path d="M970 3780 c0 -5 6 -10 14 -10 8 0 18 5 21 10 3 6 -3 10 -14 10 -12 0
-21 -4 -21 -10z"/>
<path d="M1135 3810 c-3 -5 3 -10 15 -10 12 0 18 5 15 10 -3 6 -10 10 -15 10
-5 0 -12 -4 -15 -10z"/>
<path d="M1455 3810 c-3 -5 3 -10 15 -10 12 0 18 5 15 10 -3 6 -10 10 -15 10
-5 0 -12 -4 -15 -10z"/>
<path d="M1690 3794 c0 -33 33 -30 38 4 3 17 -2 22 -17 22 -16 0 -21 -6 -21
-26z"/>
<path d="M1695 3650 c-3 -5 3 -10 15 -10 12 0 18 5 15 10 -3 6 -10 10 -15 10
-5 0 -12 -4 -15 -10z"/>
<path d="M1930 3634 c0 -33 33 -30 38 4 3 17 -2 22 -17 22 -16 0 -21 -6 -21
-26z"/>
<path d="M817 3333 c-4 -3 -7 -15 -7 -25 0 -28 34 -19 38 10 3 21 -16 31 -31
15z"/>
<path d="M977 3333 c-4 -3 -7 -15 -7 -25 0 -28 34 -19 38 10 3 21 -16 31 -31
15z"/>
<path d="M250 3314 c0 -33 33 -30 38 4 3 17 -2 22 -17 22 -16 0 -21 -6 -21
-26z"/>
<path d="M490 3314 c0 -33 33 -30 38 4 3 17 -2 22 -17 22 -16 0 -21 -6 -21
-26z"/>
<path d="M655 3330 c-3 -5 3 -10 15 -10 12 0 18 5 15 10 -3 6 -10 10 -15 10
-5 0 -12 -4 -15 -10z"/>
<path d="M895 3330 c-3 -5 3 -10 15 -10 12 0 18 5 15 10 -3 6 -10 10 -15 10
-5 0 -12 -4 -15 -10z"/>
<path d="M1135 3331 c-7 -12 12 -24 25 -16 11 7 4 25 -10 25 -5 0 -11 -4 -15
-9z"/>
<path d="M1130 3270 c0 -5 9 -10 20 -10 11 0 20 5 20 10 0 6 -9 10 -20 10 -11
0 -20 -4 -20 -10z"/>
<path d="M1455 3330 c-3 -5 3 -10 15 -10 12 0 18 5 15 10 -3 6 -10 10 -15 10
-5 0 -12 -4 -15 -10z"/>
<path d="M1690 3314 c0 -33 33 -30 38 4 3 17 -2 22 -17 22 -16 0 -21 -6 -21
-26z"/>
<path d="M897 3173 c-4 -3 -7 -15 -7 -25 0 -28 34 -19 38 10 3 21 -16 31 -31
15z"/>
<path d="M1057 3173 c-4 -3 -7 -15 -7 -25 0 -28 34 -19 38 10 3 21 -16 31 -31
15z"/>
<path d="M975 3170 c-3 -5 3 -10 15 -10 12 0 18 5 15 10 -3 6 -10 10 -15 10
-5 0 -12 -4 -15 -10z"/>
<path d="M1215 3171 c-7 -12 12 -24 25 -16 11 7 4 25 -10 25 -5 0 -11 -4 -15
-9z"/>
<path d="M1210 3110 c0 -5 9 -10 20 -10 11 0 20 5 20 10 0 6 -9 10 -20 10 -11
0 -20 -4 -20 -10z"/>
<path d="M1695 3170 c-3 -5 3 -10 15 -10 12 0 18 5 15 10 -3 6 -10 10 -15 10
-5 0 -12 -4 -15 -10z"/>
<path d="M1930 3154 c0 -33 33 -30 38 4 3 17 -2 22 -17 22 -16 0 -21 -6 -21
-26z"/>
<path d="M250 2834 c0 -33 33 -30 38 4 3 17 -2 22 -17 22 -16 0 -21 -6 -21
-26z"/>
<path d="M490 2834 c0 -33 33 -30 38 4 3 17 -2 22 -17 22 -16 0 -21 -6 -21
-26z"/>
<path d="M655 2850 c-3 -5 3 -10 15 -10 12 0 18 5 15 10 -3 6 -10 10 -15 10
-5 0 -12 -4 -15 -10z"/>
<path d="M1050 2834 c0 -33 33 -30 38 4 3 17 -2 22 -17 22 -16 0 -21 -6 -21
-26z"/>
<path d="M1375 2850 c-3 -5 3 -10 15 -10 12 0 18 5 15 10 -3 6 -10 10 -15 10
-5 0 -12 -4 -15 -10z"/>
<path d="M1610 2834 c0 -33 33 -30 38 4 3 17 -2 22 -17 22 -16 0 -21 -6 -21
-26z"/>
<path d="M1615 2690 c-3 -5 3 -10 15 -10 12 0 18 5 15 10 -3 6 -10 10 -15 10
-5 0 -12 -4 -15 -10z"/>
<path d="M1850 2674 c0 -33 33 -30 38 4 3 17 -2 22 -17 22 -16 0 -21 -6 -21
-26z"/>
<path d="M250 2354 c0 -33 33 -30 38 4 3 17 -2 22 -17 22 -16 0 -21 -6 -21
-26z"/>
<path d="M490 2354 c0 -33 33 -30 38 4 3 17 -2 22 -17 22 -16 0 -21 -6 -21
-26z"/>
<path d="M655 2370 c-3 -5 3 -10 15 -10 12 0 18 5 15 10 -3 6 -10 10 -15 10
-5 0 -12 -4 -15 -10z"/>
<path d="M815 2370 c-3 -5 3 -10 15 -10 12 0 18 5 15 10 -3 6 -10 10 -15 10
-5 0 -12 -4 -15 -10z"/>
<path d="M1050 2354 c0 -33 33 -30 38 4 3 17 -2 22 -17 22 -16 0 -21 -6 -21
-26z"/>
<path d="M1455 2370 c-3 -5 3 -10 15 -10 12 0 18 5 15 10 -3 6 -10 10 -15 10
-5 0 -12 -4 -15 -10z"/>
<path d="M1690 2354 c0 -33 33 -30 38 4 3 17 -2 22 -17 22 -16 0 -21 -6 -21
-26z"/>
<path d="M1695 2210 c-3 -5 3 -10 15 -10 12 0 18 5 15 10 -3 6 -10 10 -15 10
-5 0 -12 -4 -15 -10z"/>
<path d="M1930 2194 c0 -33 33 -30 38 4 3 17 -2 22 -17 22 -16 0 -21 -6 -21
-26z"/>
<path d="M250 1874 c0 -33 33 -30 38 4 3 17 -2 22 -17 22 -16 0 -21 -6 -21
-26z"/>
<path d="M490 1874 c0 -33 33 -30 38 4 3 17 -2 22 -17 22 -16 0 -21 -6 -21
-26z"/>
<path d="M655 1890 c-3 -5 3 -10 15 -10 12 0 18 5 15 10 -3 6 -10 10 -15 10
-5 0 -12 -4 -15 -10z"/>
<path d="M890 1860 c0 -5 6 -10 14 -10 8 0 18 5 21 10 3 6 -3 10 -14 10 -12 0
-21 -4 -21 -10z"/>
<path d="M1375 1890 c-3 -5 3 -10 15 -10 12 0 18 5 15 10 -3 6 -10 10 -15 10
-5 0 -12 -4 -15 -10z"/>
<path d="M1610 1874 c0 -33 33 -30 38 4 3 17 -2 22 -17 22 -16 0 -21 -6 -21
-26z"/>
<path d="M1615 1730 c-3 -5 3 -10 15 -10 12 0 18 5 15 10 -3 6 -10 10 -15 10
-5 0 -12 -4 -15 -10z"/>
<path d="M1850 1714 c0 -33 33 -30 38 4 3 17 -2 22 -17 22 -16 0 -21 -6 -21
-26z"/>
<path d="M250 1394 c0 -33 33 -30 38 4 3 17 -2 22 -17 22 -16 0 -21 -6 -21
-26z"/>
<path d="M490 1394 c0 -33 33 -30 38 4 3 17 -2 22 -17 22 -16 0 -21 -6 -21
-26z"/>
<path d="M655 1410 c-3 -5 3 -10 15 -10 12 0 18 5 15 10 -3 6 -10 10 -15 10
-5 0 -12 -4 -15 -10z"/>
<path d="M890 1394 c0 -33 33 -30 38 4 3 17 -2 22 -17 22 -16 0 -21 -6 -21
-26z"/>
<path d="M1130 1380 c0 -5 6 -10 14 -10 8 0 18 5 21 10 3 6 -3 10 -14 10 -12
0 -21 -4 -21 -10z"/>
<path d="M1370 1394 c0 -33 33 -30 38 4 3 17 -2 22 -17 22 -16 0 -21 -6 -21
-26z"/>
<path d="M1455 1411 c-7 -12 12 -24 25 -16 11 7 4 25 -10 25 -5 0 -11 -4 -15
-9z"/>
<path d="M1450 1350 c0 -5 9 -10 20 -10 11 0 20 5 20 10 0 6 -9 10 -20 10 -11
0 -20 -4 -20 -10z"/>
<path d="M1775 1410 c-3 -5 3 -10 15 -10 12 0 18 5 15 10 -3 6 -10 10 -15 10
-5 0 -12 -4 -15 -10z"/>
<path d="M2010 1394 c0 -33 33 -30 38 4 3 17 -2 22 -17 22 -16 0 -21 -6 -21
-26z"/>
<path d="M95 1250 c-3 -5 3 -10 15 -10 12 0 18 5 15 10 -3 6 -10 10 -15 10 -5
0 -12 -4 -15 -10z"/>
<path d="M330 1234 c0 -33 33 -30 38 4 3 17 -2 22 -17 22 -16 0 -21 -6 -21
-26z"/>
</g>
</svg>
